<svg width="14" height="16" viewBox="0 0 14 16" fill="none" xmlns="http://www.w3.org/2000/svg">
<path d="M10 5V6.5H7.75V9.875C7.74992 10.2619 7.63015 10.6393 7.4071 10.9555C7.18406 11.2716 6.86867 11.5111 6.50419 11.6409C6.13971 11.7707 5.74398 11.7846 5.37129 11.6807C4.9986 11.5767 4.66719 11.3601 4.42251 11.0603C4.17783 10.7606 4.03187 10.3925 4.00465 10.0066C3.97742 9.6206 4.07026 9.23567 4.27044 8.90456C4.47062 8.57345 4.76833 8.31238 5.12274 8.15714C5.47715 8.00191 5.8709 7.96012 6.25 8.0375V5H9.25V2H1.75V14H12.25V5H10ZM0.25 1.244C0.25 0.833 0.58525 0.5 0.99925 0.5H10L13.75 4.25V14.7448C13.7507 14.8432 13.732 14.9409 13.6949 15.0322C13.6579 15.1234 13.6032 15.2065 13.534 15.2766C13.4649 15.3468 13.3826 15.4026 13.2919 15.4409C13.2011 15.4792 13.1037 15.4993 13.0052 15.5H0.99475C0.797784 15.4986 0.609263 15.4198 0.469913 15.2806C0.330563 15.1414 0.251571 14.953 0.25 14.756V1.244Z" fill="#5BCF82"/>
</svg>
