<svg width="18" height="18" viewBox="0 0 18 18" fill="none" xmlns="http://www.w3.org/2000/svg">
<path d="M0 1.79409C0.00164704 1.55773 0.0962102 1.33151 0.263262 1.16429C0.430313 0.997067 0.656442 0.902276 0.8928 0.900391H17.1072C17.6004 0.900391 18 1.30089 18 1.79409V16.2067C17.9984 16.4431 17.9038 16.6693 17.7367 16.8365C17.5697 17.0037 17.3436 17.0985 17.1072 17.1004H0.8928C0.655932 17.1002 0.428847 17.0059 0.26144 16.8383C0.0940338 16.6707 -1.2011e-07 16.4436 0 16.2067V1.79409ZM8.1 2.70039H1.8V15.3004H8.1V2.70039ZM9.9 2.70039V15.3004H16.2V2.70039H9.9ZM10.8 4.50039H15.3V6.30039H10.8V4.50039ZM10.8 7.20039H15.3V9.00039H10.8V7.20039Z" fill="#525866"/>
</svg>
