<svg width="15" height="16" viewBox="0 0 15 16" fill="none" xmlns="http://www.w3.org/2000/svg">
<path d="M11.25 2.25H14.25C14.4489 2.25 14.6397 2.32902 14.7803 2.46967C14.921 2.61032 15 2.80109 15 3V15C15 15.1989 14.921 15.3897 14.7803 15.5303C14.6397 15.671 14.4489 15.75 14.25 15.75H0.75C0.551088 15.75 0.360322 15.671 0.21967 15.5303C0.0790176 15.3897 0 15.1989 0 15V3C0 2.80109 0.0790176 2.61032 0.21967 2.46967C0.360322 2.32902 0.551088 2.25 0.75 2.25H3.75V0.75H5.25V2.25H9.75V0.75H11.25V2.25ZM13.5 6.75V3.75H11.25V5.25H9.75V3.75H5.25V5.25H3.75V3.75H1.5V6.75H13.5ZM13.5 8.25H1.5V14.25H13.5V8.25ZM3 9.75H6.75V12.75H3V9.75Z" fill="#525866"/>
</svg>
