<svg width="18" height="16" viewBox="0 0 18 16" fill="none" xmlns="http://www.w3.org/2000/svg">
<path d="M13.4115 13.4729C12.0924 14.3096 10.562 14.7527 8.99999 14.7502C4.95599 14.7502 1.59149 11.8402 0.885742 8.00017C1.20826 6.25321 2.08696 4.65734 3.39074 3.45067L1.04399 1.10617L2.10524 0.0449219L16.9545 14.8949L15.8932 15.9554L13.4107 13.4729H13.4115ZM4.45124 4.51267C3.432 5.43936 2.72198 6.65676 2.41724 8.00017C2.65146 9.02501 3.12169 9.98103 3.79049 10.7921C4.4593 11.6032 5.30821 12.247 6.26966 12.6722C7.2311 13.0973 8.27853 13.2922 9.32856 13.2413C10.3786 13.1903 11.4022 12.8949 12.318 12.3787L10.797 10.8577C10.1495 11.2655 9.38264 11.4412 8.62217 11.356C7.8617 11.2708 7.15277 10.9296 6.61167 10.3885C6.07057 9.84739 5.72941 9.13846 5.64416 8.37799C5.55891 7.61752 5.73463 6.85065 6.14249 6.20317L4.45124 4.51267ZM9.68549 9.74617L7.25399 7.31467C7.12054 7.65437 7.08913 8.02564 7.16362 8.38293C7.23811 8.74022 7.41526 9.06801 7.67333 9.32608C7.93141 9.58416 8.25919 9.7613 8.61648 9.83579C8.97378 9.91028 9.34504 9.87887 9.68474 9.74542L9.68549 9.74617ZM15.6052 11.4442L14.532 10.3717C15.0333 9.65715 15.3903 8.85156 15.5827 8.00017C15.3789 7.10747 14.9957 6.26553 14.4564 5.52554C13.917 4.78555 13.2328 4.16297 12.4454 3.69562C11.658 3.22828 10.7837 2.92595 9.87579 2.80699C8.96787 2.68804 8.04525 2.75496 7.16399 3.00367L5.98049 1.82017C6.91574 1.45267 7.93499 1.25017 8.99999 1.25017C13.044 1.25017 16.4085 4.16017 17.1142 8.00017C16.8844 9.24945 16.3679 10.4284 15.6052 11.4442ZM8.79224 4.63117C9.26962 4.60167 9.74783 4.67397 10.1951 4.84328C10.6425 5.0126 11.0487 5.27505 11.3869 5.61326C11.7251 5.95146 11.9876 6.35769 12.1569 6.80501C12.3262 7.25234 12.3985 7.73054 12.369 8.20792L8.79149 4.63117H8.79224Z" fill="#99A0AE"/>
</svg>
