<svg width="14" height="14" viewBox="0 0 14 14" fill="none" xmlns="http://www.w3.org/2000/svg">
<path d="M3.875 1.375V0.125H5.125V1.375H8.875V0.125H10.125V1.375H12.625C12.9702 1.375 13.25 1.65482 13.25 2V5.125H12V2.625H10.125V3.875H8.875V2.625H5.125V3.875H3.875V2.625H2V11.375H5.75V12.625H1.375C1.02983 12.625 0.75 12.3452 0.75 12V2C0.75 1.65482 1.02983 1.375 1.375 1.375H3.875ZM10.125 7C8.74431 7 7.625 8.11931 7.625 9.5C7.625 10.8807 8.74431 12 10.125 12C11.5057 12 12.625 10.8807 12.625 9.5C12.625 8.11931 11.5057 7 10.125 7ZM6.375 9.5C6.375 7.42894 8.05394 5.75 10.125 5.75C12.1961 5.75 13.875 7.42894 13.875 9.5C13.875 11.5711 12.1961 13.25 10.125 13.25C8.05394 13.25 6.375 11.5711 6.375 9.5ZM9.5 7.625V9.75887L10.9331 11.1919L11.8169 10.3081L10.75 9.24113V7.625H9.5Z" fill="#717784"/>
</svg>
