<svg width="18" height="18" viewBox="0 0 18 18" fill="none" xmlns="http://www.w3.org/2000/svg">
<path d="M7.22197 4.31913L12.4768 3.27475C12.7162 3.22716 12.9394 3.41036 12.9394 3.65449V11.7059C12.9394 12.3913 12.4601 12.9833 11.7897 13.126L11.3255 13.2248C10.5167 13.3968 9.75498 12.7801 9.75498 11.9533C9.75498 11.3708 10.1476 10.8616 10.7108 10.7133L12.0266 10.3671C12.2052 10.3201 12.3296 10.1586 12.3296 9.97395V6.23579C12.3296 6.06394 12.1717 5.93547 12.0035 5.97045L7.62454 6.88058C7.48982 6.90858 7.39325 7.02728 7.39325 7.16488V12.7472C7.39325 13.4969 6.86868 14.1445 6.13525 14.3L5.81691 14.3676C4.98362 14.5443 4.19912 13.9088 4.19912 13.0569C4.19912 12.5141 4.56449 12.0392 5.08923 11.9L6.46649 11.5349C6.63623 11.4899 6.75443 11.3362 6.75443 11.1606V4.88875C6.75443 4.61165 6.95019 4.37315 7.22197 4.31913Z" fill="#99A0AE"/>
<path fill-rule="evenodd" clip-rule="evenodd" d="M17.75 9C17.75 13.8325 13.8325 17.75 9 17.75C4.16751 17.75 0.25 13.8325 0.25 9C0.25 4.16751 4.16751 0.25 9 0.25C13.8325 0.25 17.75 4.16751 17.75 9ZM16.9757 9.00968C16.9757 13.4199 13.4048 16.995 9 16.995C4.59516 16.995 1.02434 13.4199 1.02434 9.00968C1.02434 4.5995 4.59516 1.02434 9 1.02434C13.4048 1.02434 16.9757 4.5995 16.9757 9.00968Z" fill="#99A0AE"/>
</svg>
