<svg width="14" height="17" viewBox="0 0 14 17" fill="none" xmlns="http://www.w3.org/2000/svg">
<path d="M6 10.5V12C4.80653 12 3.66193 12.4741 2.81802 13.318C1.97411 14.1619 1.5 15.3065 1.5 16.5H0C0 14.9087 0.632141 13.3826 1.75736 12.2574C2.88258 11.1321 4.4087 10.5 6 10.5ZM6 9.75C3.51375 9.75 1.5 7.73625 1.5 5.25C1.5 2.76375 3.51375 0.75 6 0.75C8.48625 0.75 10.5 2.76375 10.5 5.25C10.5 7.73625 8.48625 9.75 6 9.75ZM6 8.25C7.6575 8.25 9 6.9075 9 5.25C9 3.5925 7.6575 2.25 6 2.25C4.3425 2.25 3 3.5925 3 5.25C3 6.9075 4.3425 8.25 6 8.25ZM7.94625 14.109C7.85115 13.7088 7.85115 13.2919 7.94625 12.8917L7.20225 12.462L7.95225 11.163L8.69625 11.5927C8.99487 11.3099 9.35585 11.1013 9.75 10.9838V10.125H11.25V10.9838C11.649 11.1023 12.009 11.3138 12.3037 11.5927L13.0477 11.163L13.7977 12.462L13.0537 12.8917C13.1487 13.2917 13.1487 13.7083 13.0537 14.1083L13.7977 14.538L13.0477 15.837L12.3037 15.4072C12.0051 15.6901 11.6442 15.8987 11.25 16.0162V16.875H9.75V16.0162C9.35585 15.8987 8.99487 15.6901 8.69625 15.4072L7.95225 15.837L7.20225 14.538L7.94625 14.109ZM10.5 14.625C10.7984 14.625 11.0845 14.5065 11.2955 14.2955C11.5065 14.0845 11.625 13.7984 11.625 13.5C11.625 13.2016 11.5065 12.9155 11.2955 12.7045C11.0845 12.4935 10.7984 12.375 10.5 12.375C10.2016 12.375 9.91548 12.4935 9.7045 12.7045C9.49353 12.9155 9.375 13.2016 9.375 13.5C9.375 13.7984 9.49353 14.0845 9.7045 14.2955C9.91548 14.5065 10.2016 14.625 10.5 14.625Z" fill="#525866"/>
</svg>
