<svg width="18" height="18" viewBox="0 0 18 18" fill="none" xmlns="http://www.w3.org/2000/svg">
<path d="M6.51356 3.00004L8.46881 1.04479C8.60945 0.904182 8.80018 0.825195 8.99906 0.825195C9.19793 0.825195 9.38866 0.904182 9.52931 1.04479L11.4846 3.00004H14.2491C14.448 3.00004 14.6387 3.07905 14.7794 3.21971C14.92 3.36036 14.9991 3.55112 14.9991 3.75004V6.51453L16.9543 8.46979C17.0949 8.61043 17.1739 8.80116 17.1739 9.00003C17.1739 9.19891 17.0949 9.38964 16.9543 9.53028L14.9991 11.4855V14.25C14.9991 14.4489 14.92 14.6397 14.7794 14.7804C14.6387 14.921 14.448 15 14.2491 15H11.4846L9.52931 16.9553C9.38866 17.0959 9.19793 17.1749 8.99906 17.1749C8.80018 17.1749 8.60945 17.0959 8.46881 16.9553L6.51356 15H3.74906C3.55015 15 3.35938 14.921 3.21873 14.7804C3.07808 14.6397 2.99906 14.4489 2.99906 14.25V11.4855L1.04381 9.53028C0.903205 9.38964 0.824219 9.19891 0.824219 9.00003C0.824219 8.80116 0.903205 8.61043 1.04381 8.46979L2.99906 6.51453V3.75004C2.99906 3.55112 3.07808 3.36036 3.21873 3.21971C3.35938 3.07905 3.55015 3.00004 3.74906 3.00004H6.51356ZM4.49906 4.50003V7.13629L2.63531 9.00003L4.49906 10.8638V13.5H7.13531L8.99906 15.3638L10.8628 13.5H13.4991V10.8638L15.3628 9.00003L13.4991 7.13629V4.50003H10.8628L8.99906 2.63629L7.13531 4.50003H4.49906ZM8.99906 12C8.20341 12 7.44035 11.684 6.87774 11.1214C6.31513 10.5587 5.99906 9.79568 5.99906 9.00003C5.99906 8.20438 6.31513 7.44132 6.87774 6.87871C7.44035 6.31611 8.20341 6.00003 8.99906 6.00003C9.79471 6.00003 10.5578 6.31611 11.1204 6.87871C11.683 7.44132 11.9991 8.20438 11.9991 9.00003C11.9991 9.79568 11.683 10.5587 11.1204 11.1214C10.5578 11.684 9.79471 12 8.99906 12ZM8.99906 10.5C9.39688 10.5 9.77841 10.342 10.0597 10.0607C10.341 9.77939 10.4991 9.39786 10.4991 9.00003C10.4991 8.60221 10.341 8.22068 10.0597 7.93937C9.77841 7.65807 9.39688 7.50003 8.99906 7.50003C8.60123 7.50003 8.2197 7.65807 7.9384 7.93937C7.65709 8.22068 7.49906 8.60221 7.49906 9.00003C7.49906 9.39786 7.65709 9.77939 7.9384 10.0607C8.2197 10.342 8.60123 10.5 8.99906 10.5Z" fill="#525866"/>
</svg>
