<svg width="30" height="33" viewBox="0 0 30 33" fill="none" xmlns="http://www.w3.org/2000/svg">
<path d="M27.1238 14.7507L28.9268 15.8322C29.038 15.8988 29.1301 15.9931 29.194 16.1059C29.258 16.2186 29.2916 16.3461 29.2916 16.4757C29.2916 16.6054 29.258 16.7328 29.194 16.8456C29.1301 16.9583 29.038 17.0526 28.9268 17.1192L14.9993 25.4757L1.07179 17.1192C0.960563 17.0526 0.868492 16.9583 0.804564 16.8456C0.740635 16.7328 0.707031 16.6054 0.707031 16.4757C0.707031 16.3461 0.740635 16.2186 0.804564 16.1059C0.868492 15.9931 0.960563 15.8988 1.07179 15.8322L2.87479 14.7507L14.9993 22.0257L27.1238 14.7507ZM27.1238 21.8007L28.9268 22.8822C29.038 22.9488 29.1301 23.0431 29.194 23.1559C29.258 23.2686 29.2916 23.3961 29.2916 23.5257C29.2916 23.6554 29.258 23.7828 29.194 23.8956C29.1301 24.0083 29.038 24.1026 28.9268 24.1692L15.7718 32.0622C15.5385 32.2024 15.2715 32.2764 14.9993 32.2764C14.7271 32.2764 14.4601 32.2024 14.2268 32.0622L1.07179 24.1692C0.960563 24.1026 0.868492 24.0083 0.804564 23.8956C0.740635 23.7828 0.707031 23.6554 0.707031 23.5257C0.707031 23.3961 0.740635 23.2686 0.804564 23.1559C0.868492 23.0431 0.960563 22.9488 1.07179 22.8822L2.87479 21.8007L14.9993 29.0757L27.1238 21.8007V21.8007ZM15.7703 0.964215L28.9268 8.85721C29.038 8.9238 29.1301 9.01809 29.194 9.13087C29.258 9.24365 29.2916 9.37107 29.2916 9.50071C29.2916 9.63035 29.258 9.75778 29.194 9.87056C29.1301 9.98334 29.038 10.0776 28.9268 10.1442L14.9993 18.5007L1.07179 10.1442C0.960563 10.0776 0.868492 9.98334 0.804564 9.87056C0.740635 9.75778 0.707031 9.63035 0.707031 9.50071C0.707031 9.37107 0.740635 9.24365 0.804564 9.13087C0.868492 9.01809 0.960563 8.9238 1.07179 8.85721L14.2268 0.964215C14.4601 0.82405 14.7271 0.75 14.9993 0.75C15.2715 0.75 15.5385 0.82405 15.7718 0.964215H15.7703Z" fill="#49A668"/>
</svg>
