<svg width="14" height="14" viewBox="0 0 14 14" fill="none" xmlns="http://www.w3.org/2000/svg">
<path d="M5.75358 0.815038C4.87761 0.531469 3.92534 0.925907 3.50643 1.74584L3.00282 2.73158C2.94298 2.8487 2.84772 2.94396 2.7306 3.00379L1.74487 3.50741C0.92493 3.92631 0.530493 4.87858 0.814062 5.75456L1.15497 6.80768C1.19548 6.93281 1.19548 7.06756 1.15497 7.19268L0.814062 8.24581C0.530493 9.12181 0.92493 10.0741 1.74487 10.493L2.7306 10.9966C2.84772 11.0564 2.94298 11.1517 3.00282 11.2688L3.50643 12.2546C3.92534 13.0745 4.87761 13.4689 5.75358 13.1854L6.80671 12.8444C6.93183 12.8039 7.06658 12.8039 7.19171 12.8444L8.24483 13.1854C9.12083 13.4689 10.0731 13.0745 10.492 12.2546L10.9956 11.2688C11.0555 11.1517 11.1507 11.0564 11.2678 10.9966L12.2536 10.493C13.0735 10.0741 13.468 9.12181 13.1844 8.24581L12.8435 7.19268C12.803 7.06756 12.803 6.93281 12.8435 6.80768L13.1844 5.75456C13.468 4.87858 13.0735 3.92631 12.2536 3.50741L11.2678 3.00379C11.1507 2.94396 11.0555 2.8487 10.9956 2.73158L10.492 1.74584C10.0731 0.925907 9.12083 0.531469 8.24483 0.815038L7.19171 1.15595C7.06658 1.19645 6.93183 1.19646 6.80671 1.15595L5.75358 0.815038ZM3.72406 6.84849L4.60795 5.96456L6.37571 7.73237L9.91127 4.19684L10.7951 5.08072L6.37571 9.50012L3.72406 6.84849Z" fill="#47C2FF"/>
</svg>
